#N canvas 0 51 1366 694 10;
#X obj 57 105 s arduino_out;
#X msg 57 38 open 0;
#X msg 57 57 close;
#X msg 113 38 pinMode 6 input;
#X msg 57 38 open 0;
#X obj 306 91 s arduino_in;
#X obj 306 45 r arduino_out;
#X obj 306 68 arduino 0;
#X obj 415 140 r arduino_in;
#X obj 415 168 route analog digital;
#X obj 414 197 route 0 1 2 3 4 5 6 7 8 9 10 11 12 13;
#X obj 445 219 tgl 15 0 empty ARDUINO_TEST_RESET 2 4 23 1 12 -232448
-1 -1 0 1;
#X obj 462 219 tgl 15 0 empty ARDUINO_TEST_RESET 3 4 23 1 12 -232448
-1 -1 0 1;
#X obj 479 219 tgl 15 0 empty ARDUINO_TEST_RESET 4 4 23 1 12 -232448
-1 -1 0 1;
#X obj 496 219 tgl 15 0 empty ARDUINO_TEST_RESET 5 4 23 1 12 -232448
-1 -1 0 1;
#X obj 513 219 tgl 15 0 empty ARDUINO_TEST_RESET 6 4 23 1 12 -232448
-1 -1 0 1;
#X obj 530 219 tgl 15 0 empty ARDUINO_TEST_RESET 7 4 23 1 12 -232448
-1 -1 0 1;
#X obj 547 219 tgl 15 0 empty ARDUINO_TEST_RESET 8 4 23 1 12 -232448
-1 -1 0 1;
#X obj 564 219 tgl 15 0 empty ARDUINO_TEST_RESET 9 4 23 1 12 -232448
-1 -1 0 1;
#X obj 581 219 tgl 15 0 empty ARDUINO_TEST_RESET 10 0 23 1 12 -232448
-1 -1 0 1;
#X obj 598 219 tgl 15 0 empty ARDUINO_TEST_RESET 11 0 23 1 12 -232448
-1 -1 0 1;
#X obj 615 219 tgl 15 0 empty ARDUINO_TEST_RESET 12 0 23 1 12 -232448
-1 -1 0 1;
#X obj 632 219 tgl 15 0 empty ARDUINO_TEST_RESET 13 0 23 1 12 -232448
-1 -1 0 1;
#X obj 411 219 tgl 15 0 empty ARDUINO_TEST_RESET 0 4 23 1 12 -232448
-1 -1 0 1;
#X obj 428 219 tgl 15 0 empty ARDUINO_TEST_RESET 1 4 23 1 12 -232448
-1 -1 0 1;
#X obj 518 270 s CO2_rec;
#X floatatom 28 218 5 0 0 3 a0 - -, f 5;
#X floatatom 74 218 5 0 0 3 a1 - -, f 5;
#X floatatom 120 218 5 0 0 3 a2 - -, f 5;
#X floatatom 166 218 5 0 0 3 a3 - -, f 5;
#X floatatom 212 218 5 0 0 3 a4 - -, f 5;
#X floatatom 258 218 5 0 0 3 a5 - -, f 5;
#X floatatom 304 218 5 0 0 3 a6 - -, f 5;
#X floatatom 350 218 5 0 0 3 a7 - -, f 5;
#X obj 127 161 route 0 1 2 3 4 5 6 7;
#N canvas 981 48 499 396 display 0;
#X obj 6 7 inlet;
#X obj 6 28 mapping/resample 100;
#X obj 6 50 outlet;
#X obj 54 50 inlet;
#X obj 54 71 mapping/resample 100;
#X obj 54 93 outlet;
#X obj 103 93 inlet;
#X obj 103 114 mapping/resample 100;
#X obj 103 136 outlet;
#X obj 151 136 inlet;
#X obj 151 157 mapping/resample 100;
#X obj 151 179 outlet;
#X obj 200 179 inlet;
#X obj 200 200 mapping/resample 100;
#X obj 200 222 outlet;
#X obj 247 222 inlet;
#X obj 247 243 mapping/resample 100;
#X obj 247 265 outlet;
#X obj 295 265 inlet;
#X obj 295 286 mapping/resample 100;
#X obj 295 308 outlet;
#X obj 345 308 inlet;
#X obj 345 329 mapping/resample 100;
#X obj 345 351 outlet;
#X obj 60 290 receive ARDUINO_TEST_RESET;
#X connect 0 0 1 0;
#X connect 1 0 2 0;
#X connect 3 0 4 0;
#X connect 4 0 5 0;
#X connect 6 0 7 0;
#X connect 7 0 8 0;
#X connect 9 0 10 0;
#X connect 10 0 11 0;
#X connect 12 0 13 0;
#X connect 13 0 14 0;
#X connect 15 0 16 0;
#X connect 16 0 17 0;
#X connect 18 0 19 0;
#X connect 19 0 20 0;
#X connect 21 0 22 0;
#X connect 22 0 23 0;
#X connect 24 0 22 0;
#X connect 24 0 19 0;
#X connect 24 0 16 0;
#X connect 24 0 13 0;
#X connect 24 0 10 0;
#X connect 24 0 7 0;
#X connect 24 0 4 0;
#X connect 24 0 1 0;
#X restore 51 192 pd display values without pegging the CPU;
#X obj 768 150 r CO2_rec;
#X obj 768 177 t b b;
#X obj 768 199 timer;
#X floatatom 768 221 5 0 0 0 - - -, f 5;
#X obj 768 242 spigot;
#X obj 768 264 t f b;
#X floatatom 768 286 5 0 0 0 - - -, f 5;
#X obj 768 307 - 2;
#X obj 768 329 * 3;
#X floatatom 768 351 5 0 0 0 - - -, f 5;
#X obj 768 372 s CO2;
#X msg 840 297 0;
#X obj 814 299 bng 15 250 50 0 empty empty empty 17 7 0 10 -262144
-1 -1;
#X obj 813 326 f;
#X obj 850 327 + 1;
#X floatatom 813 351 13 0 0 0 - - -, f 13;
#X obj 813 372 s sr;
#X connect 1 0 0 0;
#X connect 2 0 0 0;
#X connect 3 0 0 0;
#X connect 6 0 7 0;
#X connect 7 0 5 0;
#X connect 8 0 9 0;
#X connect 9 0 34 0;
#X connect 9 1 10 0;
#X connect 10 0 23 0;
#X connect 10 1 24 0;
#X connect 10 2 11 0;
#X connect 10 3 12 0;
#X connect 10 4 13 0;
#X connect 10 5 14 0;
#X connect 10 6 15 0;
#X connect 10 7 16 0;
#X connect 10 8 17 0;
#X connect 10 9 18 0;
#X connect 10 10 19 0;
#X connect 10 11 20 0;
#X connect 10 12 21 0;
#X connect 10 13 22 0;
#X connect 15 0 25 0;
#X connect 34 0 35 0;
#X connect 34 1 35 1;
#X connect 34 2 35 2;
#X connect 34 3 35 3;
#X connect 34 4 35 4;
#X connect 34 5 35 5;
#X connect 34 6 35 6;
#X connect 34 7 35 7;
#X connect 35 0 26 0;
#X connect 35 1 27 0;
#X connect 35 2 28 0;
#X connect 35 3 29 0;
#X connect 35 4 30 0;
#X connect 35 5 31 0;
#X connect 35 6 32 0;
#X connect 35 7 33 0;
#X connect 36 0 37 0;
#X connect 36 0 40 1;
#X connect 37 0 38 0;
#X connect 37 1 38 1;
#X connect 38 0 39 0;
#X connect 39 0 40 0;
#X connect 40 0 41 0;
#X connect 41 0 42 0;
#X connect 41 1 48 0;
#X connect 42 0 43 0;
#X connect 43 0 44 0;
#X connect 44 0 45 0;
#X connect 45 0 46 0;
#X connect 47 0 49 0;
#X connect 48 0 49 0;
#X connect 49 0 50 0;
#X connect 49 0 51 0;
#X connect 50 0 49 1;
#X connect 51 0 52 0;
