#N canvas 1 51 1366 717 10;
#X obj 1012 188 hsl 128 15 0 1 0 0 empty empty empty -2 -8 0 10 -262144
-1 -1 0 1;
#X obj 1012 238 hsl 128 15 0 1 0 0 empty empty empty -2 -8 0 10 -262144
-1 -1 0 1;
#X obj 1012 288 hsl 128 15 0 1 0 0 empty empty empty -2 -8 0 10 -262144
-1 -1 6195 1;
#X obj 1013 208 s red;
#X obj 1013 258 s green;
#X obj 1013 308 s blue;
#X obj 782 65 osc~ 0.0625;
#X obj 782 87 unsig~;
#X floatatom 782 109 5 0 0 0 - - -, f 5;
#X obj 782 130 abs;
#X floatatom 782 174 5 0 0 0 - - -, f 5;
#X obj 782 152 / 1;
#X obj 652 65 osc~ 0.0625;
#X obj 652 87 unsig~;
#X floatatom 652 109 5 0 0 0 - - -, f 5;
#X obj 652 130 abs;
#X floatatom 652 174 5 0 0 0 - - -, f 5;
#X obj 652 152 / 4;
#X obj 552 85 osc~ 0.0625;
#X obj 552 107 unsig~;
#X floatatom 552 129 5 0 0 0 - - -, f 5;
#X obj 552 150 abs;
#X floatatom 552 194 5 0 0 0 - - -, f 5;
#X obj 552 172 / 4;
#X obj 553 222 + 0.25;
#X obj 718 276 line 2000;
#X obj 648 286 line 2000;
#X obj 579 285 line 2000;
#X connect 0 0 3 0;
#X connect 1 0 4 0;
#X connect 2 0 5 0;
#X connect 6 0 7 0;
#X connect 7 0 8 0;
#X connect 8 0 9 0;
#X connect 9 0 11 0;
#X connect 10 0 25 0;
#X connect 11 0 10 0;
#X connect 12 0 13 0;
#X connect 13 0 14 0;
#X connect 14 0 15 0;
#X connect 15 0 17 0;
#X connect 16 0 26 0;
#X connect 17 0 16 0;
#X connect 18 0 19 0;
#X connect 19 0 20 0;
#X connect 20 0 21 0;
#X connect 21 0 23 0;
#X connect 22 0 24 0;
#X connect 23 0 22 0;
#X connect 24 0 27 0;
#X connect 27 0 2 0;
