#N canvas 1 51 1366 717 10;
#X floatatom 126 56 5 0 0 0 - - -, f 5;
#X obj 39 56 route CO2 sr;
#X floatatom 39 78 5 0 0 0 - - -, f 5;
#X floatatom 77 79 23 0 0 0 - - -, f 23;
#X obj 51 113 s CO2_wifi;
#X floatatom 786 180 5 0 0 0 - - -, f 5;
#X obj 786 158 r CO2_wifi;
#X obj 782 277 line;
#X floatatom 782 311 5 0 0 0 - - -, f 5;
#X floatatom 526 184 5 0 0 0 - - -, f 5;
#X obj 526 162 r CO2_wifi;
#X obj 522 281 line;
#X floatatom 522 315 5 0 0 0 - - -, f 5;
#X floatatom 656 182 5 0 0 0 - - -, f 5;
#X obj 656 160 r CO2_wifi;
#X obj 652 279 line;
#X floatatom 652 313 5 0 0 0 - - -, f 5;
#X obj 510 355 s red;
#X obj 650 355 s green;
#X obj 780 351 s blue;
#X msg 516 255 \$1 5000;
#X msg 646 252 \$1 5000;
#X msg 776 250 \$1 5000;
#X obj 428 334 / 1.4167;
#X obj 520 219 map 360 2500 0 0.405;
#X obj 780 216 map 350 900 0 1;
#X obj 650 217 map 360 1000 0 1;
#X obj 39 29 netreceive 3003;
#X connect 1 0 2 0;
#X connect 1 1 3 0;
#X connect 2 0 4 0;
#X connect 5 0 25 0;
#X connect 6 0 5 0;
#X connect 7 0 8 0;
#X connect 8 0 19 0;
#X connect 9 0 24 0;
#X connect 10 0 9 0;
#X connect 11 0 12 0;
#X connect 12 0 23 0;
#X connect 13 0 26 0;
#X connect 14 0 13 0;
#X connect 15 0 16 0;
#X connect 16 0 18 0;
#X connect 20 0 11 0;
#X connect 21 0 15 0;
#X connect 22 0 7 0;
#X connect 23 0 17 0;
#X connect 24 0 20 0;
#X connect 25 0 22 0;
#X connect 26 0 21 0;
#X connect 27 0 1 0;
