#N canvas 0 51 1366 694 10;
#X obj 1182 72 s arduino_in;
#X obj 1182 26 r arduino_out;
#X obj 1182 49 arduino 0;
#X obj 743 120 s arduino_out;
#X msg 743 72 close;
#X obj 416 10 r arduino_in;
#X obj 416 38 route analog digital;
#X obj 415 67 route 0 1 2 3 4 5 6 7 8 9 10 11 12 13;
#X obj 446 89 tgl 15 0 empty ARDUINO_TEST_RESET 2 4 23 1 12 -232448
-1 -1 0 1;
#X obj 463 89 tgl 15 0 empty ARDUINO_TEST_RESET 3 4 23 1 12 -232448
-1 -1 0 1;
#X obj 480 89 tgl 15 0 empty ARDUINO_TEST_RESET 4 4 23 1 12 -232448
-1 -1 0 1;
#X obj 497 89 tgl 15 0 empty ARDUINO_TEST_RESET 5 4 23 1 12 -232448
-1 -1 0 1;
#X obj 514 89 tgl 15 0 empty ARDUINO_TEST_RESET 6 4 23 1 12 -232448
-1 -1 0 1;
#X obj 531 89 tgl 15 0 empty ARDUINO_TEST_RESET 7 4 23 1 12 -232448
-1 -1 0 1;
#X obj 548 89 tgl 15 0 empty ARDUINO_TEST_RESET 8 4 23 1 12 -232448
-1 -1 0 1;
#X obj 565 89 tgl 15 0 empty ARDUINO_TEST_RESET 9 4 23 1 12 -232448
-1 -1 0 1;
#X obj 582 89 tgl 15 0 empty ARDUINO_TEST_RESET 10 0 23 1 12 -232448
-1 -1 0 1;
#X obj 599 89 tgl 15 0 empty ARDUINO_TEST_RESET 11 0 23 1 12 -232448
-1 -1 0 1;
#X obj 616 89 tgl 15 0 empty ARDUINO_TEST_RESET 12 0 23 1 12 -232448
-1 -1 0 1;
#X obj 633 89 tgl 15 0 empty ARDUINO_TEST_RESET 13 0 23 1 12 -232448
-1 -1 0 1;
#X obj 412 89 tgl 15 0 empty ARDUINO_TEST_RESET 0 4 23 1 12 -232448
-1 -1 0 1;
#X obj 429 89 tgl 15 0 empty ARDUINO_TEST_RESET 1 4 23 1 12 -232448
-1 -1 0 1;
#X floatatom 29 88 5 0 0 3 a0 - -, f 5;
#X floatatom 75 88 5 0 0 3 a1 - -, f 5;
#X floatatom 121 88 5 0 0 3 a2 - -, f 5;
#X floatatom 167 88 5 0 0 3 a3 - -, f 5;
#X floatatom 213 88 5 0 0 3 a4 - -, f 5;
#X floatatom 259 88 5 0 0 3 a5 - -, f 5;
#X floatatom 305 88 5 0 0 3 a6 - -, f 5;
#X floatatom 351 88 5 0 0 3 a7 - -, f 5;
#X obj 128 31 route 0 1 2 3 4 5 6 7;
#N canvas 981 48 499 396 display 0;
#X obj 6 7 inlet;
#X obj 6 28 mapping/resample 100;
#X obj 6 50 outlet;
#X obj 54 50 inlet;
#X obj 54 71 mapping/resample 100;
#X obj 54 93 outlet;
#X obj 103 93 inlet;
#X obj 103 114 mapping/resample 100;
#X obj 103 136 outlet;
#X obj 151 136 inlet;
#X obj 151 157 mapping/resample 100;
#X obj 151 179 outlet;
#X obj 200 179 inlet;
#X obj 200 200 mapping/resample 100;
#X obj 200 222 outlet;
#X obj 247 222 inlet;
#X obj 247 243 mapping/resample 100;
#X obj 247 265 outlet;
#X obj 295 265 inlet;
#X obj 295 286 mapping/resample 100;
#X obj 295 308 outlet;
#X obj 345 308 inlet;
#X obj 345 329 mapping/resample 100;
#X obj 345 351 outlet;
#X obj 60 290 receive ARDUINO_TEST_RESET;
#X connect 0 0 1 0;
#X connect 1 0 2 0;
#X connect 3 0 4 0;
#X connect 4 0 5 0;
#X connect 6 0 7 0;
#X connect 7 0 8 0;
#X connect 9 0 10 0;
#X connect 10 0 11 0;
#X connect 12 0 13 0;
#X connect 13 0 14 0;
#X connect 15 0 16 0;
#X connect 16 0 17 0;
#X connect 18 0 19 0;
#X connect 19 0 20 0;
#X connect 21 0 22 0;
#X connect 22 0 23 0;
#X connect 24 0 22 0;
#X connect 24 0 19 0;
#X connect 24 0 16 0;
#X connect 24 0 13 0;
#X connect 24 0 10 0;
#X connect 24 0 7 0;
#X connect 24 0 4 0;
#X connect 24 0 1 0;
#X restore 52 62 pd display values without pegging the CPU;
#X obj 923 292 hsl 150 17 0 1 0 0 empty empty empty -2 -6 1 10 -260818
-1 -1 0 1;
#X obj 923 376 hsl 150 17 0 1 0 0 empty empty empty -2 -6 1 10 -260818
-1 -1 0 1;
#X obj 923 454 hsl 150 17 0 0.242 0 0 empty empty empty -2 -6 1 10
-260818 -1 -1 0 1;
#X msg 899 93 pinMode 11 pwm;
#X msg 899 113 pinMode 10 pwm;
#X msg 899 133 pinMode 9 pwm;
#X msg 920 313 pwm 11 \$1;
#X msg 920 397 pwm 10 \$1;
#X msg 920 505 pwm 9 \$1;
#X msg 743 53 open 1;
#X msg 693 53 open 0;
#X msg 1009 93 pinMode 2 input;
#X msg 1009 113 pinMode 3 input;
#X msg 1009 133 pinMode 4 input;
#X floatatom 987 483 5 0 0 0 - - -, f 5;
#X floatatom 927 334 5 0 0 0 - - -, f 5;
#X floatatom 927 418 5 0 0 0 - - -, f 5;
#X floatatom 927 538 5 0 0 0 - - -, f 5;
#X obj 923 267 r red;
#X obj 923 433 r blue;
#X obj 924 353 r green;
#X connect 1 0 2 0;
#X connect 2 0 0 0;
#X connect 4 0 3 0;
#X connect 5 0 6 0;
#X connect 6 0 30 0;
#X connect 6 1 7 0;
#X connect 7 0 20 0;
#X connect 7 1 21 0;
#X connect 7 2 8 0;
#X connect 7 3 9 0;
#X connect 7 4 10 0;
#X connect 7 5 11 0;
#X connect 7 6 12 0;
#X connect 7 7 13 0;
#X connect 7 8 14 0;
#X connect 7 9 15 0;
#X connect 7 10 16 0;
#X connect 7 11 17 0;
#X connect 7 12 18 0;
#X connect 7 13 19 0;
#X connect 30 0 31 0;
#X connect 30 1 31 1;
#X connect 30 2 31 2;
#X connect 30 3 31 3;
#X connect 30 4 31 4;
#X connect 30 5 31 5;
#X connect 30 6 31 6;
#X connect 30 7 31 7;
#X connect 31 0 22 0;
#X connect 31 1 23 0;
#X connect 31 2 24 0;
#X connect 31 3 25 0;
#X connect 31 4 26 0;
#X connect 31 5 27 0;
#X connect 31 6 28 0;
#X connect 31 7 29 0;
#X connect 32 0 38 0;
#X connect 32 0 47 0;
#X connect 33 0 39 0;
#X connect 33 0 48 0;
#X connect 34 0 40 0;
#X connect 34 0 46 0;
#X connect 34 0 49 0;
#X connect 35 0 3 0;
#X connect 36 0 3 0;
#X connect 37 0 3 0;
#X connect 38 0 3 0;
#X connect 39 0 3 0;
#X connect 40 0 3 0;
#X connect 41 0 3 0;
#X connect 42 0 3 0;
#X connect 43 0 3 0;
#X connect 44 0 3 0;
#X connect 45 0 3 0;
#X connect 50 0 32 0;
#X connect 51 0 34 0;
#X connect 52 0 33 0;
