#N canvas 27 153 1366 740 10;
#X obj 21 62 gemwin;
#X msg 12 20 create \, 1;
#X msg 107 14 dimen 1920 1080;
#X obj 267 -14 gemhead 2;
#X obj 284 21 openpanel;
#X msg 295 49 open \$1;
#X msg 302 86 auto \$1;
#X obj 289 126 pix_film;
#X obj 373 44 tgl 15 0 empty empty empty 17 7 0 10 -262144 -1 -1 1
1;
#X obj 347 2 bng 15 250 50 0 empty empty empty 17 7 0 10 -262144 -1
-1;
#X obj 116 487 pix_texture;
#X msg 127 64 destroy;
#X msg 156 119 0;
#X floatatom 1233 351 5 0 0 0 - - -, f 5;
#X obj 1260 250 unsig~;
#X obj 1259 289 * 10;
#X obj 1257 318 abs;
#X obj 1274 351 + 20;
#X obj 1258 218 osc~ 8;
#X obj 1030 300 scale;
#X floatatom 1063 251 5 0 0 0 - - -, f 5;
#X obj 1059 334 translateXYZ;
#X floatatom 1083 291 5 0 0 0 - - -, f 5;
#X floatatom 1133 291 5 0 0 0 - - -, f 5;
#X floatatom 1183 291 5 0 0 0 - - -, f 5;
#X obj 942 429 square;
#X obj 960 269 color;
#X obj 584 146 pix_threshold;
#X obj 1088 414 rectangle 16 9;
#X obj 1119 377 rotateXYZ;
#X floatatom 1223 441 5 0 0 0 - - -, f 5;
#X floatatom 1273 441 5 0 0 0 - - -, f 5;
#X floatatom 1323 441 5 0 0 0 - - -, f 5;
#X msg 1002 194 1 1 1;
#X floatatom 772 71 5 0 0 0 - - -, f 5;
#X floatatom 809 71 5 0 0 0 - - -, f 5;
#X floatatom 849 71 5 0 0 0 - - -, f 5;
#X floatatom 889 71 5 0 0 0 - - -, f 5;
#X msg 807 126 0 1 0;
#X obj 796 102 pack 0 0 0 0;
#X floatatom 982 81 5 0 0 0 - - -, f 5;
#X floatatom 1019 81 5 0 0 0 - - -, f 5;
#X floatatom 1059 81 5 0 0 0 - - -, f 5;
#X floatatom 1099 81 5 0 0 0 - - -, f 5;
#X obj 1006 162 pack 0 0 0 0;
#X obj 812 15 hsl 128 15 0 1 0 0 empty empty empty -2 -8 0 10 -262144
-1 -1 0 1;
#X obj 812 35 hsl 128 15 0 1 0 0 empty empty empty -2 -8 0 10 -262144
-1 -1 0 1;
#X obj 812 -5 hsl 128 15 0 1 0 0 empty empty empty -2 -8 0 10 -262144
-1 -1 0 1;
#X obj 982 15 hsl 128 15 0 1 0 0 empty empty empty -2 -8 0 10 -262144
-1 -1 0 1;
#X obj 982 35 hsl 128 15 0 1 0 0 empty empty empty -2 -8 0 10 -262144
-1 -1 0 1;
#X obj 982 -5 hsl 128 15 0 1 0 0 empty empty empty -2 -8 0 10 -262144
-1 -1 0 1;
#X obj 1002 118 t b;
#X obj 982 55 hsl 128 15 0 1 0 0 empty empty empty -2 -8 0 10 -262144
-1 -1 0 1;
#X obj 654 195 pix_contrast;
#X obj 712 165 hsl 128 15 0 1 0 0 empty empty empty -2 -8 0 10 -262144
-1 -1 10850 1;
#X obj 712 145 hsl 128 15 0 1 0 0 empty empty empty -2 -8 0 10 -262144
-1 -1 9900 1;
#X obj 882 108 t b;
#X obj 388 297 pix_mix;
#X obj 122 539 s rect;
#X obj 933 202 r rect;
#X floatatom 349 196 5 0 0 0 - - -, f 5;
#X floatatom 279 206 5 0 0 0 - - -, f 5;
#X obj 54 171 openpanel;
#X msg 65 199 open \$1;
#X msg 72 236 auto \$1;
#X obj 59 276 pix_film;
#X obj 143 194 tgl 15 0 empty empty empty 17 7 0 10 -262144 -1 -1 1
1;
#X obj 117 152 bng 15 250 50 0 empty empty empty 17 7 0 10 -262144
-1 -1;
#X floatatom 119 346 5 0 0 0 - - -, f 5;
#X floatatom 49 356 5 0 0 0 - - -, f 5;
#X obj 37 136 gemhead 3;
#X obj 442 245 hsl 128 15 0 1 0 0 empty empty empty -2 -8 0 10 -262144
-1 -1 0 1;
#X obj 576 377 pix_texture;
#X obj 576 399 square;
#X obj 705 295 translateXYZ;
#X obj 705 317 rotateXYZ;
#X obj 708 269 scale;
#X msg 778 229 2;
#X connect 1 0 0 0;
#X connect 2 0 0 0;
#X connect 3 0 7 0;
#X connect 4 0 5 0;
#X connect 5 0 7 0;
#X connect 6 0 7 0;
#X connect 7 0 27 0;
#X connect 7 1 61 0;
#X connect 7 2 60 0;
#X connect 8 0 6 0;
#X connect 9 0 4 0;
#X connect 10 0 58 0;
#X connect 11 0 0 0;
#X connect 12 0 0 0;
#X connect 14 0 15 0;
#X connect 15 0 16 0;
#X connect 16 0 17 0;
#X connect 17 0 13 0;
#X connect 18 0 14 0;
#X connect 19 0 21 0;
#X connect 20 0 19 1;
#X connect 21 0 29 0;
#X connect 22 0 21 1;
#X connect 23 0 21 2;
#X connect 24 0 21 3;
#X connect 26 0 19 0;
#X connect 27 0 53 0;
#X connect 29 0 28 0;
#X connect 30 0 29 1;
#X connect 31 0 29 2;
#X connect 32 0 29 3;
#X connect 33 0 26 1;
#X connect 34 0 39 0;
#X connect 34 0 56 0;
#X connect 35 0 39 1;
#X connect 35 0 56 0;
#X connect 36 0 39 2;
#X connect 36 0 56 0;
#X connect 37 0 39 3;
#X connect 37 0 56 0;
#X connect 38 0 27 2;
#X connect 39 0 27 2;
#X connect 40 0 44 0;
#X connect 40 0 51 0;
#X connect 41 0 51 0;
#X connect 41 0 44 1;
#X connect 42 0 44 2;
#X connect 42 0 51 0;
#X connect 43 0 44 3;
#X connect 43 0 51 0;
#X connect 44 0 26 1;
#X connect 45 0 35 0;
#X connect 46 0 36 0;
#X connect 47 0 34 0;
#X connect 48 0 41 0;
#X connect 49 0 40 0;
#X connect 50 0 42 0;
#X connect 51 0 44 0;
#X connect 52 0 43 0;
#X connect 53 0 57 1;
#X connect 53 0 72 0;
#X connect 53 0 76 0;
#X connect 54 0 53 2;
#X connect 55 0 53 1;
#X connect 56 0 39 0;
#X connect 57 0 10 0;
#X connect 59 0 26 0;
#X connect 62 0 63 0;
#X connect 63 0 65 0;
#X connect 64 0 65 0;
#X connect 65 0 57 0;
#X connect 65 1 69 0;
#X connect 65 2 68 0;
#X connect 66 0 64 0;
#X connect 67 0 62 0;
#X connect 70 0 65 0;
#X connect 71 0 57 2;
#X connect 72 0 73 0;
#X connect 74 0 75 0;
#X connect 75 0 72 0;
#X connect 76 0 74 0;
#X connect 77 0 76 1;
