#N canvas 166 249 450 346 10;
#X obj 276 51 gemhead 1;
#X obj 276 253 pix_film;
#X obj 454 115 tgl 15 0 empty empty empty 17 7 0 10 -262144 -1 -1 0
1;
#X obj 454 166 f;
#X obj 491 167 + 1;
#X floatatom 485 219 5 0 0 0 - - -, f 5;
#X obj 454 139 metro 100;
#X floatatom 307 290 5 0 0 0 - - -, f 5;
#X floatatom 357 290 5 0 0 0 - - -, f 5;
#X obj 493 544 pix_mix;
#X obj 606 141 gemhead 1;
#X obj 606 253 pix_film;
#X obj 784 115 tgl 15 0 empty empty empty 17 7 0 10 -262144 -1 -1 0
1;
#X obj 784 166 f;
#X obj 821 167 + 1;
#X floatatom 815 219 5 0 0 0 - - -, f 5;
#X obj 784 139 metro 100;
#X obj 784 190 mod 3000;
#X floatatom 637 290 5 0 0 0 - - -, f 5;
#X floatatom 687 290 5 0 0 0 - - -, f 5;
#X obj 579 521 hsl 128 15 0 1 0 0 empty empty empty -2 -8 0 10 -262144
-1 -1 0 1;
#X obj 251 470 pix_texture;
#X obj 251 492 rectangle 16 9;
#X obj 303 182 openpanel;
#X msg 314 210 open \$1;
#X obj 366 163 bng 15 250 50 0 empty empty empty 17 7 0 10 -262144
-1 -1;
#X obj 633 182 openpanel;
#X msg 644 210 open \$1;
#X obj 696 163 bng 15 250 50 0 empty empty empty 17 7 0 10 -262144
-1 -1;
#X obj 454 192 mod 5000;
#X obj 961 106 gemwin;
#X msg 952 64 create \, 1;
#X msg 1067 108 destroy;
#X msg 1096 163 0;
#X msg 1047 58 dimen 1280 760;
#X obj 602 376 scale;
#X obj 602 398 rotateXYZ;
#X obj 602 420 translateXYZ;
#X obj 602 442 s sleep;
#X floatatom 624 340 5 0 0 0 - - -, f 5;
#X obj 631 480 pix_texture;
#X obj 631 502 rectangle 16 9;
#X floatatom 664 360 5 0 0 0 - - -, f 5;
#X obj 578 332 color;
#X obj 252 416 scale;
#X floatatom 289 388 5 0 0 0 - - -, f 5;
#X msg 602 297 0.8 0.8 0.8;
#X obj 491 590 pix_texture;
#X obj 491 612 rectangle 16 9;
#X obj 1093 439 alpha;
#X obj 1105 375 tgl 15 0 empty empty empty 17 7 0 10 -262144 -1 -1
0 1;
#X msg 1105 395 auto \$1;
#X obj 1085 375 tgl 15 0 empty empty empty 17 7 0 10 -262144 -1 -1
0 1;
#X obj 1179 391 hsl 128 15 0 1 0 0 empty empty empty -2 -8 0 10 -262144
-1 -1 0 1;
#X obj 153 389 alpha;
#X obj 165 325 tgl 15 0 empty empty empty 17 7 0 10 -262144 -1 -1 0
1;
#X msg 165 345 auto \$1;
#X obj 145 325 tgl 15 0 empty empty empty 17 7 0 10 -262144 -1 -1 0
1;
#X obj 239 341 hsl 128 15 0 1 0 0 empty empty empty -2 -8 0 10 -262144
-1 -1 0 1;
#X connect 0 0 1 0;
#X connect 1 0 44 0;
#X connect 1 1 7 0;
#X connect 1 2 8 0;
#X connect 2 0 6 0;
#X connect 3 0 29 0;
#X connect 4 0 3 1;
#X connect 6 0 3 0;
#X connect 9 0 47 0;
#X connect 10 0 11 0;
#X connect 11 0 43 0;
#X connect 11 1 18 0;
#X connect 11 2 19 0;
#X connect 12 0 16 0;
#X connect 13 0 17 0;
#X connect 14 0 13 1;
#X connect 16 0 13 0;
#X connect 17 0 14 0;
#X connect 17 0 15 0;
#X connect 17 0 11 1;
#X connect 20 0 9 2;
#X connect 21 0 22 0;
#X connect 23 0 24 0;
#X connect 24 0 1 0;
#X connect 25 0 23 0;
#X connect 26 0 27 0;
#X connect 27 0 11 0;
#X connect 28 0 26 0;
#X connect 29 0 4 0;
#X connect 29 0 5 0;
#X connect 29 0 1 1;
#X connect 31 0 30 0;
#X connect 32 0 30 0;
#X connect 33 0 30 0;
#X connect 34 0 30 0;
#X connect 35 0 36 0;
#X connect 36 0 37 0;
#X connect 37 0 38 0;
#X connect 39 0 35 1;
#X connect 40 0 41 0;
#X connect 42 0 36 3;
#X connect 43 0 9 1;
#X connect 44 0 9 0;
#X connect 44 0 21 0;
#X connect 45 0 44 1;
#X connect 46 0 43 1;
#X connect 47 0 48 0;
#X connect 50 0 51 0;
#X connect 52 0 49 0;
#X connect 53 0 49 1;
#X connect 55 0 56 0;
#X connect 57 0 54 0;
#X connect 58 0 54 1;
